<mxfile host="app.diagrams.net" modified="2022-02-07T12:33:36.912Z" agent="5.0 (Macintosh; Intel Mac OS X 10_15_7) AppleWebKit/537.36 (KHTML, like Gecko) Chrome/97.0.4692.99 Safari/537.36" etag="Xn2_YoeFv9IOBYI-4PBb" version="16.5.3" type="github">
  <diagram id="NSL6-QTNsmACJsXSIW7e" name="Page-1">
    <mxGraphModel dx="2253" dy="769" grid="1" gridSize="10" guides="1" tooltips="1" connect="1" arrows="1" fold="1" page="1" pageScale="1" pageWidth="827" pageHeight="1169" math="0" shadow="0">
      <root>
        <mxCell id="0" />
        <mxCell id="1" parent="0" />
        <mxCell id="yN7oscvE-115In1JRoVP-2" value="特征包" style="text;html=1;align=center;verticalAlign=middle;resizable=0;points=[];autosize=1;strokeColor=none;fillColor=none;fontSize=18;" parent="1" vertex="1">
          <mxGeometry x="100" y="110" width="70" height="30" as="geometry" />
        </mxCell>
        <mxCell id="yN7oscvE-115In1JRoVP-3" value="实体" style="text;html=1;align=center;verticalAlign=middle;resizable=0;points=[];autosize=1;strokeColor=none;fillColor=none;fontSize=18;" parent="1" vertex="1">
          <mxGeometry x="100" y="290" width="50" height="30" as="geometry" />
        </mxCell>
        <mxCell id="yN7oscvE-115In1JRoVP-4" value="特征6" style="text;html=1;align=center;verticalAlign=middle;resizable=0;points=[];autosize=1;strokeColor=none;fillColor=none;fontSize=18;" parent="1" vertex="1">
          <mxGeometry x="240" y="170" width="60" height="30" as="geometry" />
        </mxCell>
        <mxCell id="yN7oscvE-115In1JRoVP-5" value="特征4" style="text;html=1;align=center;verticalAlign=middle;resizable=0;points=[];autosize=1;strokeColor=none;fillColor=none;fontSize=18;" parent="1" vertex="1">
          <mxGeometry x="240" y="70" width="60" height="30" as="geometry" />
        </mxCell>
        <mxCell id="yN7oscvE-115In1JRoVP-6" value="特征5" style="text;html=1;align=center;verticalAlign=middle;resizable=0;points=[];autosize=1;strokeColor=none;fillColor=none;fontSize=18;" parent="1" vertex="1">
          <mxGeometry x="240" y="120" width="60" height="30" as="geometry" />
        </mxCell>
        <mxCell id="yN7oscvE-115In1JRoVP-7" value="特征3" style="text;html=1;align=center;verticalAlign=middle;resizable=0;points=[];autosize=1;strokeColor=none;fillColor=none;fontSize=18;" parent="1" vertex="1">
          <mxGeometry x="195" y="330" width="60" height="30" as="geometry" />
        </mxCell>
        <mxCell id="yN7oscvE-115In1JRoVP-8" value="特征2" style="text;html=1;align=center;verticalAlign=middle;resizable=0;points=[];autosize=1;strokeColor=none;fillColor=none;fontSize=18;" parent="1" vertex="1">
          <mxGeometry x="195" y="290" width="60" height="30" as="geometry" />
        </mxCell>
        <mxCell id="yN7oscvE-115In1JRoVP-9" value="特征1" style="text;html=1;align=center;verticalAlign=middle;resizable=0;points=[];autosize=1;strokeColor=none;fillColor=none;fontSize=18;" parent="1" vertex="1">
          <mxGeometry x="195" y="245" width="60" height="30" as="geometry" />
        </mxCell>
        <mxCell id="yN7oscvE-115In1JRoVP-10" value="" style="shape=curlyBracket;whiteSpace=wrap;html=1;rounded=1;fontSize=18;" parent="1" vertex="1">
          <mxGeometry x="170" y="245" width="20" height="120" as="geometry" />
        </mxCell>
        <mxCell id="yN7oscvE-115In1JRoVP-12" value="" style="shape=curlyBracket;whiteSpace=wrap;html=1;rounded=1;fontSize=18;" parent="1" vertex="1">
          <mxGeometry x="175" y="75" width="20" height="120" as="geometry" />
        </mxCell>
        <mxCell id="yN7oscvE-115In1JRoVP-13" value="Magpie平台现有的大体作用，在平台上配置好实体、特征、特征包后(一个实体可以包含多个特征，一个特征包可以将多个特征数据查询出来), 其他人可以直接通过调用iestns.data.magpie_core来获取数据" style="text;html=1;align=center;verticalAlign=middle;resizable=0;points=[];autosize=1;strokeColor=none;fillColor=none;fontSize=18;" parent="1" vertex="1">
          <mxGeometry x="-540" y="560" width="1620" height="30" as="geometry" />
        </mxCell>
        <mxCell id="yN7oscvE-115In1JRoVP-14" value="积木平台配置模板" style="rounded=0;whiteSpace=wrap;html=1;fontSize=18;" parent="1" vertex="1">
          <mxGeometry x="110" y="770" width="150" height="60" as="geometry" />
        </mxCell>
        <mxCell id="yN7oscvE-115In1JRoVP-16" value="TCS配置队列" style="rounded=0;whiteSpace=wrap;html=1;fontSize=18;" parent="1" vertex="1">
          <mxGeometry x="110" y="880" width="150" height="60" as="geometry" />
        </mxCell>
        <mxCell id="yN7oscvE-115In1JRoVP-17" value="hawk 配置pipeline" style="rounded=0;whiteSpace=wrap;html=1;fontSize=18;" parent="1" vertex="1">
          <mxGeometry x="110" y="980" width="150" height="60" as="geometry" />
        </mxCell>
        <mxCell id="yN7oscvE-115In1JRoVP-18" value="将aweme_id推送待待审队列中" style="rounded=0;whiteSpace=wrap;html=1;fontSize=18;" parent="1" vertex="1">
          <mxGeometry x="105" y="1169" width="150" height="60" as="geometry" />
        </mxCell>
        <mxCell id="yN7oscvE-115In1JRoVP-19" value="TCS取待审队列" style="rounded=0;whiteSpace=wrap;html=1;fontSize=18;" parent="1" vertex="1">
          <mxGeometry x="100" y="1269" width="150" height="60" as="geometry" />
        </mxCell>
        <mxCell id="yN7oscvE-115In1JRoVP-20" value="Magpie平台的基本操作" style="rounded=0;whiteSpace=wrap;html=1;fontSize=18;" parent="1" vertex="1">
          <mxGeometry x="-250" y="770" width="150" height="60" as="geometry" />
        </mxCell>
        <mxCell id="yN7oscvE-115In1JRoVP-21" value="dolphin平台的基本操作" style="rounded=0;whiteSpace=wrap;html=1;fontSize=18;" parent="1" vertex="1">
          <mxGeometry x="-250" y="950" width="150" height="60" as="geometry" />
        </mxCell>
        <mxCell id="yN7oscvE-115In1JRoVP-22" value="人审" style="text;html=1;align=center;verticalAlign=middle;resizable=0;points=[];autosize=1;strokeColor=none;fillColor=none;fontSize=18;" parent="1" vertex="1">
          <mxGeometry x="285" y="895" width="50" height="30" as="geometry" />
        </mxCell>
        <mxCell id="yN7oscvE-115In1JRoVP-23" value="机审" style="text;html=1;align=center;verticalAlign=middle;resizable=0;points=[];autosize=1;strokeColor=none;fillColor=none;fontSize=18;" parent="1" vertex="1">
          <mxGeometry x="285" y="995" width="50" height="30" as="geometry" />
        </mxCell>
      </root>
    </mxGraphModel>
  </diagram>
</mxfile>
